<svg width="279" height="192" viewBox="0 0 279 192" fill="none" xmlns="http://www.w3.org/2000/svg">
<path d="M163.37 2.32083C179.278 8.40596 191.316 24.8749 193.028 41.4372C199.347 38.789 207.065 38.6988 215.117 41.779C233.614 48.8541 246.893 69.9703 244.772 88.9392C244.436 91.9487 243.729 94.7206 242.711 97.2292C244.811 97.61 246.953 98.2029 249.122 99.0329C267.623 106.109 280.898 127.221 278.777 146.193C276.657 165.162 259.945 174.806 241.444 167.73C232.081 164.149 227.912 162.502 221.836 160.177C218.798 159.015 215.284 157.685 210.407 155.858C206.089 154.167 202.367 152.731 198.751 151.348C191.521 148.582 184.722 146.034 174.456 142.108C165.271 138.594 161.877 137.618 155.014 134.994C151.583 133.682 147.284 131.956 140.962 129.296C136.363 127.545 132.639 126.123 129.207 124.81C122.344 122.185 116.649 119.996 107.465 116.484C84.6154 107.744 68.2136 81.661 70.8332 58.2253C73.4519 34.7932 94.0998 22.8813 116.949 31.6209C120.4 32.941 123.698 34.6622 126.809 36.7007C125.863 32.4328 125.564 28.0943 126.037 23.8581C128.157 4.88969 144.873 -4.75386 163.37 2.32083Z" fill="#85C2A3"/>
<path d="M151.811 8.10031C167.72 14.1854 179.758 30.6544 181.47 47.2167C187.789 44.5685 195.506 44.4783 203.559 47.5585C222.056 54.6336 235.335 75.7498 233.214 94.7187C232.878 97.7282 232.171 100.5 231.153 103.009C233.253 103.389 235.395 103.982 237.564 104.812C256.064 111.888 269.34 133 267.219 151.972C265.099 170.941 248.387 180.586 229.886 173.51C220.523 169.928 216.354 168.281 210.277 165.957C207.24 164.795 203.725 163.464 198.849 161.638C194.53 159.947 190.808 158.51 187.193 157.127C179.963 154.362 173.163 151.813 162.898 147.887C153.713 144.374 150.318 143.398 143.455 140.773C140.024 139.461 135.726 137.736 129.403 135.076C124.804 133.324 121.081 131.902 117.649 130.589C110.786 127.964 105.091 125.776 95.9062 122.263C73.057 113.523 56.6552 87.4405 59.2748 64.0047C61.8936 40.5726 82.5415 28.6608 105.391 37.4004C108.842 38.7204 112.14 40.4416 115.251 42.4801C114.304 38.2123 114.005 33.8737 114.478 29.6376C116.599 10.6692 133.314 1.02562 151.811 8.10031Z" fill="white"/>
<rect width="37" height="34.6383" rx="5" transform="matrix(0.866025 0.5 -2.20305e-08 1 83 17)" fill="#EDEDED"/>
<rect width="37" height="34.6383" rx="5" transform="matrix(0.866025 0.5 -2.20305e-08 1 80 18)" fill="white"/>
<path d="M102.124 42L101.258 41.5L101.258 39.5C101.258 36.74 99.3184 33.38 96.9282 32C94.538 30.62 92.5981 31.74 92.5981 34.5L92.5981 36.5L91.7321 36C90.7794 35.45 90 35.9 90 37L90 47C90 48.1 90.7794 49.45 91.7321 50L102.124 56C103.077 56.55 103.856 56.1 103.856 55L103.856 45C103.856 43.9 103.077 42.55 102.124 42ZM96.9282 48C95.9756 47.45 95.1962 46.1 95.1962 45C95.1962 43.9 95.9756 43.45 96.9282 44C97.8808 44.55 98.6603 45.9 98.6603 47C98.6603 48.1 97.8808 48.55 96.9282 48ZM99.6129 40.55L94.2435 37.45L94.2435 35.45C94.2435 33.74 95.4473 33.045 96.9282 33.9C98.4091 34.755 99.6129 36.84 99.6129 38.55L99.6129 40.55Z" fill="#85C2A3"/>
<path d="M100.124 44L99.2583 43.5L99.2583 41.5C99.2583 38.74 97.3184 35.38 94.9282 34C92.538 32.62 90.5981 33.74 90.5981 36.5L90.5981 38.5L89.7321 38C88.7794 37.45 88 37.9 88 39L88 49C88 50.1 88.7794 51.45 89.7321 52L100.124 58C101.077 58.55 101.856 58.1 101.856 57L101.856 47C101.856 45.9 101.077 44.55 100.124 44ZM94.9282 50C93.9756 49.45 93.1962 48.1 93.1962 47C93.1962 45.9 93.9756 45.45 94.9282 46C95.8808 46.55 96.6603 47.9 96.6603 49C96.6603 50.1 95.8808 50.55 94.9282 50ZM97.6129 42.55L92.2435 39.45L92.2435 37.45C92.2435 35.74 93.4473 35.045 94.9282 35.9C96.4091 36.755 97.6129 38.84 97.6129 40.55L97.6129 42.55Z" fill="#1CBF6B"/>
<rect x="91" y="44" width="6" height="8" fill="#1CBF6B"/>
<rect width="37" height="34.6383" rx="5" transform="matrix(0.866025 0.5 -2.20305e-08 1 162 41)" fill="#EDEDED"/>
<rect width="37" height="34.6383" rx="5" transform="matrix(0.866025 0.5 -2.20305e-08 1 159 42)" fill="white"/>
<path d="M173.311 57L166.816 53.25C165.625 52.5625 164.661 53.1313 164.661 54.5063L164.651 69.5C164.651 70.875 165.625 72.5625 166.816 73.25L184.136 83.25C185.327 83.9375 186.301 83.375 186.301 82L186.301 69.5C186.301 68.125 185.327 66.4375 184.136 65.75L175.476 60.75L173.311 57Z" fill="#85C2A3"/>
<path d="M170.66 59L164.165 55.25C162.974 54.5625 162.011 55.1313 162.011 56.5063L162 71.5C162 72.875 162.974 74.5625 164.165 75.25L181.486 85.25C182.676 85.9375 183.651 85.375 183.651 84L183.651 71.5C183.651 70.125 182.676 68.4375 181.486 67.75L172.825 62.75L170.66 59Z" fill="#1CBF6B"/>
<rect width="37" height="34.6383" rx="5" transform="matrix(0.866025 0.5 -2.20305e-08 1 195 132)" fill="#EDEDED"/>
<rect width="37" height="34.6383" rx="5" transform="matrix(0.866025 0.5 -2.20305e-08 1 192 133)" fill="white"/>
<path d="M220.785 175L220.785 157C220.785 155.35 219.615 153.325 218.187 152.5L202.598 143.5C201.169 142.675 200 143.35 200 145L200 163C200 164.65 201.169 166.675 202.598 167.5L218.187 176.5C219.615 177.325 220.785 176.65 220.785 175ZM207.015 161.845L209.132 166.338L212.484 163.442C212.744 163.217 213.237 163.502 213.497 164.027L217.342 171.798C217.68 172.487 217.381 173.035 216.836 172.72L203.897 165.25C203.365 164.942 203.053 164.058 203.377 163.75L205.976 161.245C206.235 161.005 206.755 161.305 207.015 161.845Z" fill="#85C2A3"/>
<path d="M218.785 176L218.785 158C218.785 156.35 217.615 154.325 216.187 153.5L200.598 144.5C199.169 143.675 198 144.35 198 146L198 164C198 165.65 199.169 167.675 200.598 168.5L216.187 177.5C217.615 178.325 218.785 177.65 218.785 176ZM205.015 162.845L207.132 167.338L210.484 164.442C210.744 164.217 211.237 164.502 211.497 165.027L215.342 172.798C215.68 173.487 215.381 174.035 214.836 173.72L201.897 166.25C201.365 165.942 201.053 165.058 201.377 164.75L203.976 162.245C204.235 162.005 204.755 162.305 205.015 162.845Z" fill="#1CBF6B"/>
<rect width="47" height="37" rx="2" transform="matrix(0.891228 0.453555 -0.838405 0.545049 112.892 148.794)" fill="#1E1C1C"/>
<rect width="12" height="20" transform="matrix(0.897312 0.441397 0.0663945 0.997793 114.535 143.978)" fill="#EDEDED"/>
<rect width="12" height="20" transform="matrix(0.897312 0.441397 0.0663945 0.997793 111.47 145.877)" fill="#1CBF6B"/>
<rect width="86.1224" height="70.0608" rx="5" transform="matrix(0.887062 0.461649 0.0437311 0.999043 82.8109 66.3929)" fill="#EDEDED"/>
<rect x="1.39619" y="2.19104" width="83.1224" height="67.0608" rx="3.5" transform="matrix(0.887062 0.461649 0.0437311 0.999043 79.7254 67.5094)" fill="white" stroke="#1E1C1C" stroke-width="3"/>
<rect width="17.4053" height="64.0851" rx="2" transform="matrix(0.885101 0.4654 0.0395024 0.999219 82.5382 72.5244)" fill="#1CBF6B"/>
<rect width="45.4496" height="31" rx="2" transform="matrix(0.88526 0.465096 0.0398451 0.999206 123.587 106.482)" fill="#EDEDED"/>
<rect width="45.4496" height="31" rx="2" transform="matrix(0.88526 0.465096 0.0398451 0.999206 120.587 108.482)" fill="white"/>
<rect width="4" height="21" rx="2" transform="matrix(0.866025 0.5 -2.40672e-08 1 126 116)" fill="#1CBF6B"/>
<rect width="4" height="14" rx="2" transform="matrix(0.866025 0.5 -2.40672e-08 1 147.651 135.5)" fill="#158A4E"/>
<rect width="4" height="18" rx="2" transform="matrix(0.866025 0.5 -2.40672e-08 1 143.32 129)" fill="#1CBF6B"/>
<rect width="4" height="12.0912" rx="2" transform="matrix(0.866025 0.5 -2.40672e-08 1 152.321 139.909)" fill="#1CBF6B"/>
<rect width="4" height="9" rx="2" transform="matrix(0.866025 0.5 -2.40672e-08 1 138.99 135.5)" fill="#1CBF6B"/>
<rect width="4" height="15" rx="2" transform="matrix(0.866025 0.5 -2.40672e-08 1 134.66 127)" fill="#158A4E"/>
<rect width="4" height="12" rx="2" transform="matrix(0.866025 0.5 -2.40672e-08 1 130.33 127.5)" fill="#1CBF6B"/>
<rect width="22" height="10" rx="2" transform="matrix(0.885122 0.46536 0.0395473 0.999218 100 94)" fill="#85C2A3"/>
<rect width="22" height="10" rx="2" transform="matrix(0.885122 0.46536 0.0395473 0.999218 100.554 107.989)" fill="#85C2A3"/>
<rect width="22" height="10" rx="2" transform="matrix(0.885122 0.46536 0.0395473 0.999218 101.107 121.978)" fill="#85C2A3"/>
<rect width="44.1352" height="44.1352" rx="5" transform="matrix(0.895147 0.445772 -0.833623 0.552334 40.1757 90.5994)" fill="white"/>
<rect width="44.1352" height="9.16262" rx="4.58131" transform="matrix(0.895147 0.445772 0.0615237 0.998106 4.98779 112.22)" fill="white"/>
<rect width="44.1353" height="9.16262" rx="4.58131" transform="matrix(0.833623 -0.552334 0.0615238 0.998106 41.1338 132.101)" fill="white"/>
<rect width="2.20676" height="2.20676" rx="1.10338" transform="matrix(0.895147 0.445772 0.0615237 0.998106 7.46075 116.483)" fill="#1CBF6B"/>
<rect width="34.1451" height="0.882704" rx="0.441352" transform="matrix(0.895147 0.445772 0.0615237 0.998106 10.7084 118.935)" fill="#1CBF6B"/>
<rect width="41.9037" height="40.307" transform="matrix(0.895147 0.445772 -0.833623 0.552334 40.4883 90.3438)" fill="#EDEDED"/>
<rect width="44.1352" height="44.9197" rx="5" transform="matrix(0.895147 0.445772 -0.833623 0.552334 40.0092 76.8633)" fill="white"/>
<rect width="45.1482" height="9.16262" rx="4.58131" transform="matrix(0.895147 0.445772 0.0615237 0.998106 4.16803 98.9168)" fill="white"/>
<rect width="44.1353" height="10.4158" rx="5" transform="matrix(0.833623 -0.552334 0.0615238 0.998106 41.1624 118.116)" fill="white"/>
<rect width="2.20676" height="2.20676" rx="1.10338" transform="matrix(0.895147 0.445772 0.0615237 0.998106 6.64117 103.18)" fill="#1CBF6B"/>
<rect width="34.1451" height="0.882704" rx="0.441352" transform="matrix(0.895147 0.445772 0.0615237 0.998106 9.88873 105.633)" fill="#1CBF6B"/>
<rect width="41.2905" height="40.7612" transform="matrix(0.895147 0.445772 -0.833623 0.552334 39.9623 76.8697)" fill="#EDEDED"/>
<rect width="46.674" height="43.3927" rx="5" transform="matrix(0.895147 0.445772 -0.833623 0.552334 37.5079 62.4869)" fill="white"/>
<rect width="45.1511" height="10.6802" rx="5" transform="matrix(0.895147 0.445772 0.0615237 0.998106 3.18201 82.9541)" fill="white"/>
<rect width="44.1353" height="9.16262" rx="4.58131" transform="matrix(0.833623 -0.552334 0.0615238 0.998106 40.3239 104.556)" fill="white"/>
<rect width="2.20676" height="2.20676" rx="1.10338" transform="matrix(0.895147 0.445772 0.0615237 0.998106 6.70551 89.8236)" fill="#1CBF6B"/>
<rect width="34.1451" height="0.882704" rx="0.441352" transform="matrix(0.895147 0.445772 0.0615237 0.998106 9.95319 92.2761)" fill="#1CBF6B"/>
<path d="M56.4999 131.5C54.3846 155.398 80.5 152.5 109.5 152L106.5 150.5C83 151.5 74.5 150.5 69 148.5C61 146.094 56.9055 139.986 58 130.5L56.4999 131.5Z" fill="#1CBF6B"/>
</svg>
